Normalized EMG Linear Envelopes
nRows=38
nColumns=17

endheader
time	        VM	        VL	        RF	       GRA	        TA	   ADDLONG	   SEMIMEM	      BFLH	        GM	        GL	       TFL	   GLUTMAX	   GLUTMED	      PIRI	    OBTINT	        QF	
1.7675	  0.579695	  0.330138	  0.058991	  0.250810	  0.379708	  0.064960	  0.487090	  0.631797	  0.484244	  0.172507	  0.037719	  0.520001	  0.241885	  1.082053	  0.389931	  1.042214	
1.768	  0.584307	  0.333512	  0.059581	  0.250205	  0.377918	  0.065456	  0.482059	  0.628907	  0.485362	  0.174524	  0.038262	  0.522074	  0.242009	  1.082405	  0.386458	  1.047228	
1.7685	  0.588869	  0.336870	  0.060168	  0.249607	  0.376111	  0.065952	  0.477059	  0.626026	  0.486523	  0.176569	  0.038815	  0.524094	  0.242129	  1.082605	  0.383167	  1.052195	
1.769	  0.593379	  0.340212	  0.060750	  0.249016	  0.374288	  0.066449	  0.472093	  0.623156	  0.487727	  0.178641	  0.039376	  0.526059	  0.242246	  1.082651	  0.380062	  1.057112	
1.7695	  0.597834	  0.343537	  0.061328	  0.248434	  0.372451	  0.066944	  0.467161	  0.620298	  0.488973	  0.180741	  0.039947	  0.527968	  0.242360	  1.082547	  0.377144	  1.061976	
1.77	  0.602233	  0.346845	  0.061902	  0.247859	  0.370600	  0.067439	  0.462267	  0.617455	  0.490262	  0.182868	  0.040528	  0.529820	  0.242473	  1.082292	  0.374418	  1.066786	
1.7705	  0.606571	  0.350135	  0.062471	  0.247292	  0.368738	  0.067933	  0.457413	  0.614628	  0.491594	  0.185021	  0.041117	  0.531613	  0.242587	  1.081888	  0.371884	  1.071539	
1.771	  0.610846	  0.353406	  0.063035	  0.246733	  0.366864	  0.068425	  0.452600	  0.611818	  0.492969	  0.187200	  0.041717	  0.533345	  0.242701	  1.081335	  0.369547	  1.076231	
1.7715	  0.615056	  0.356657	  0.063596	  0.246181	  0.364979	  0.068916	  0.447830	  0.609028	  0.494388	  0.189404	  0.042326	  0.535015	  0.242819	  1.080636	  0.367408	  1.080860	
1.772	  0.619198	  0.359887	  0.064151	  0.245635	  0.363085	  0.069406	  0.443106	  0.606259	  0.495851	  0.191634	  0.042944	  0.536622	  0.242941	  1.079792	  0.365470	  1.085424	
1.7725	  0.623267	  0.363095	  0.064702	  0.245097	  0.361183	  0.069893	  0.438428	  0.603511	  0.497357	  0.193888	  0.043572	  0.538164	  0.243068	  1.078804	  0.363734	  1.089919	
1.773	  0.627262	  0.366280	  0.065248	  0.244565	  0.359273	  0.070378	  0.433799	  0.600787	  0.498907	  0.196166	  0.044209	  0.539640	  0.243202	  1.077673	  0.362203	  1.094344	
1.7735	  0.631178	  0.369441	  0.065790	  0.244039	  0.357357	  0.070861	  0.429220	  0.598088	  0.500501	  0.198468	  0.044856	  0.541049	  0.243345	  1.076402	  0.360879	  1.098696	
1.774	  0.635014	  0.372577	  0.066327	  0.243518	  0.355434	  0.071340	  0.424692	  0.595414	  0.502138	  0.200792	  0.045512	  0.542389	  0.243497	  1.074993	  0.359763	  1.102971	
1.7745	  0.638767	  0.375687	  0.066860	  0.243002	  0.353507	  0.071817	  0.420216	  0.592766	  0.503818	  0.203139	  0.046178	  0.543659	  0.243659	  1.073449	  0.358858	  1.107167	
1.775	  0.642434	  0.378769	  0.067388	  0.242490	  0.351576	  0.072290	  0.415793	  0.590145	  0.505540	  0.205508	  0.046854	  0.544859	  0.243834	  1.071772	  0.358165	  1.111279	
1.7755	  0.646013	  0.381823	  0.067911	  0.241982	  0.349641	  0.072760	  0.411425	  0.587552	  0.507304	  0.207898	  0.047538	  0.545989	  0.244020	  1.069966	  0.357685	  1.115305	
1.776	  0.649502	  0.384848	  0.068429	  0.241478	  0.347703	  0.073225	  0.407113	  0.584987	  0.509109	  0.210309	  0.048233	  0.547047	  0.244221	  1.068034	  0.357421	  1.119241	
1.7765	  0.652900	  0.387843	  0.068942	  0.240975	  0.345762	  0.073686	  0.402857	  0.582451	  0.510953	  0.212741	  0.048937	  0.548034	  0.244436	  1.065979	  0.357374	  1.123083	
1.777	  0.656204	  0.390809	  0.069451	  0.240475	  0.343819	  0.074143	  0.398659	  0.579943	  0.512837	  0.215193	  0.049650	  0.548950	  0.244666	  1.063806	  0.357544	  1.126826	
1.7775	  0.659413	  0.393744	  0.069954	  0.239975	  0.341875	  0.074595	  0.394518	  0.577465	  0.514758	  0.217664	  0.050372	  0.549794	  0.244913	  1.061521	  0.357933	  1.130468	
1.778	  0.662525	  0.396648	  0.070452	  0.239475	  0.339928	  0.075041	  0.390436	  0.575015	  0.516716	  0.220155	  0.051104	  0.550567	  0.245176	  1.059128	  0.358543	  1.134003	
1.7785	  0.665538	  0.399522	  0.070945	  0.238974	  0.337981	  0.075482	  0.386414	  0.572595	  0.518709	  0.222665	  0.051845	  0.551268	  0.245458	  1.056634	  0.359374	  1.137429	
1.779	  0.668449	  0.402365	  0.071433	  0.238472	  0.336033	  0.075916	  0.382450	  0.570204	  0.520736	  0.225193	  0.052596	  0.551898	  0.245757	  1.054043	  0.360428	  1.140741	
1.7795	  0.671255	  0.405176	  0.071915	  0.237967	  0.334084	  0.076345	  0.378547	  0.567843	  0.522796	  0.227739	  0.053356	  0.552456	  0.246076	  1.051360	  0.361705	  1.143937	
1.78	  0.673956	  0.407956	  0.072392	  0.237458	  0.332136	  0.076766	  0.374704	  0.565511	  0.524887	  0.230303	  0.054124	  0.552943	  0.246414	  1.048592	  0.363206	  1.147012	
1.7805	  0.676549	  0.410703	  0.072865	  0.236945	  0.330187	  0.077181	  0.370921	  0.563208	  0.527008	  0.232883	  0.054902	  0.553358	  0.246772	  1.045742	  0.364931	  1.149962	
1.781	  0.679033	  0.413418	  0.073332	  0.236425	  0.328239	  0.077588	  0.367199	  0.560934	  0.529157	  0.235481	  0.055689	  0.553700	  0.247151	  1.042818	  0.366882	  1.152784	
1.7815	  0.681405	  0.416100	  0.073794	  0.235899	  0.326292	  0.077988	  0.363537	  0.558688	  0.531334	  0.238094	  0.056484	  0.553971	  0.247551	  1.039824	  0.369059	  1.155475	
1.782	  0.683665	  0.418749	  0.074251	  0.235364	  0.324346	  0.078380	  0.359935	  0.556471	  0.533538	  0.240723	  0.057288	  0.554170	  0.247972	  1.036767	  0.371462	  1.158029	
1.7825	  0.685813	  0.421365	  0.074702	  0.234821	  0.322401	  0.078764	  0.356394	  0.554281	  0.535768	  0.243366	  0.058101	  0.554297	  0.248415	  1.033654	  0.374092	  1.160445	
1.783	  0.687848	  0.423946	  0.075149	  0.234268	  0.320457	  0.079140	  0.352912	  0.552118	  0.538024	  0.246023	  0.058922	  0.554353	  0.248880	  1.030489	  0.376950	  1.162716	
1.7835	  0.689770	  0.426494	  0.075590	  0.233704	  0.318515	  0.079508	  0.349491	  0.549981	  0.540305	  0.248695	  0.059751	  0.554339	  0.249366	  1.027279	  0.380035	  1.164842	
1.784	  0.691579	  0.429007	  0.076026	  0.233128	  0.316574	  0.079866	  0.346129	  0.547870	  0.542609	  0.251379	  0.060588	  0.554255	  0.249876	  1.024030	  0.383349	  1.166819	
1.7845	  0.693278	  0.431485	  0.076457	  0.232541	  0.314634	  0.080216	  0.342828	  0.545783	  0.544937	  0.254076	  0.061434	  0.554102	  0.250407	  1.020749	  0.386891	  1.168646	
1.785	  0.694866	  0.433929	  0.076882	  0.231940	  0.312696	  0.080557	  0.339586	  0.543721	  0.547287	  0.256786	  0.062286	  0.553880	  0.250962	  1.017441	  0.390662	  1.170321	
1.7855	  0.696344	  0.436337	  0.077302	  0.231326	  0.310759	  0.080888	  0.336404	  0.541683	  0.549659	  0.259509	  0.063147	  0.553590	  0.251540	  1.014112	  0.394663	  1.171842	
1.786	  0.697712	  0.438710	  0.077717	  0.230699	  0.308824	  0.081210	  0.333282	  0.539669	  0.552052	  0.262244	  0.064015	  0.553233	  0.252141	  1.010767	  0.398894	  1.173208	
